<?xml version="1.0" encoding="UTF-8"?>
<svg version="1.1" xmlns="http://www.w3.org/2000/svg" width="500" height="500">
<path d="M0 0 C165 0 330 0 500 0 C500 165 500 330 500 500 C335 500 170 500 0 500 C0 335 0 170 0 0 Z " fill="#ECECEC" transform="translate(0,0)"/>
<path d="M0 0 C2.89989329 2.89989329 3.68537894 6.49306782 4.94921875 10.30859375 C5.23836151 11.16499954 5.52750427 12.02140533 5.82540894 12.90376282 C6.45374553 14.76642049 7.07946872 16.62996129 7.70291138 18.4942627 C9.38585988 23.52511183 11.08888426 28.54917202 12.7890625 33.57421875 C13.13902786 34.61027252 13.48899323 35.64632629 13.8495636 36.71377563 C17.3556654 47.08195128 20.9484163 57.41905704 24.5625 67.75 C25.18539986 69.53270934 25.80828395 71.31542419 26.43115234 73.09814453 C29.20766541 81.04050175 31.99197115 88.98010384 34.78277588 96.91744995 C36.29386965 101.21538385 37.80359383 105.51379763 39.3125 109.8125 C39.6070105 110.65131714 39.901521 111.49013428 40.20495605 112.35437012 C43.83653293 122.70644556 47.38463079 133.07846021 50.8125 143.5 C56.91292345 162.03755897 63.50551328 180.40743583 70.07975769 198.78125 C71.65569711 203.19003529 73.21286419 207.60248902 74.70898438 212.0390625 C74.97382629 212.81610031 75.23866821 213.59313812 75.51153564 214.39372253 C75.99421531 215.81442402 76.4695041 217.23767144 76.9352417 218.66401672 C79.38299119 225.82884793 83.73043271 231.53402271 90.5 235.0625 C91.325 235.371875 92.15 235.68125 93 236 C93 236.33 93 236.66 93 237 C65.61 237 38.22 237 10 237 C10 220.5 10 204 10 187 C7.36 187 4.72 187 2 187 C1.60321045 185.85974365 1.2064209 184.7194873 0.79760742 183.54467773 C-8.8624953 155.77995111 -8.8624953 155.77995111 -18.61166382 128.04641724 C-19.07644761 126.73071381 -19.54034482 125.41469683 -20.00332642 124.09835815 C-20.64155096 122.28470936 -21.28356806 120.4723965 -21.92578125 118.66015625 C-22.28067627 117.65605713 -22.63557129 116.65195801 -23.0012207 115.61743164 C-24.90956603 110.49970406 -24.90956603 110.49970406 -29 107 C-33.0625024 106.65425512 -35.46117165 107.07389904 -39 109 C-37.02408751 101.27641855 -34.614552 93.81410569 -31.859375 86.3359375 C-31.45985123 85.24042068 -31.06032745 84.14490387 -30.6486969 83.01618958 C-29.35338667 79.46755436 -28.05180431 75.92125742 -26.75 72.375 C-25.85272545 69.92111993 -24.95583751 67.46709846 -24.05932617 65.01293945 C-22.24884581 60.05900378 -20.43582275 55.10601048 -18.62060547 50.15380859 C-16.20000948 43.54898403 -13.78808184 36.94102846 -11.37890625 30.33203125 C-10.34831341 27.50677976 -9.31749137 24.68161207 -8.28649902 21.85650635 C-7.6390923 20.08244641 -6.99187437 18.30831757 -6.34484863 16.53411865 C-5.45639577 14.09911469 -4.56635377 11.66469814 -3.67578125 9.23046875 C-3.41632217 8.51856888 -3.1568631 7.80666901 -2.88954163 7.07319641 C-1.11467686 2.22935373 -1.11467686 2.22935373 0 0 Z " fill="#1A1A1A" transform="translate(259,101)"/>
<path d="M0 0 C2.42186815 3.63280223 2.7523803 6.97197722 3.375 11.1875 C4.8016649 19.74838668 5.89431114 26.05413229 13.25 31.375 C17.34673081 33.8356987 21.28731684 35.25672447 26 36 C27.11890625 36.18304688 28.2378125 36.36609375 29.390625 36.5546875 C32.59078139 37.06033992 35.79294339 37.54045225 39 38 C39 38.33 39 38.66 39 39 C37.72125 39.17015625 36.4425 39.3403125 35.125 39.515625 C33.41656234 39.75968752 31.70823461 40.00452036 30 40.25 C29.16082031 40.35957031 28.32164062 40.46914063 27.45703125 40.58203125 C22.33584322 41.33631476 18.22266775 42.56545591 13.69140625 45.08886719 C12 46 12 46 9 47 C3.93163022 55.19883346 2.26484626 65.61350936 1 75 C0.67 75 0.34 75 0 75 C-0.09796875 74.18917969 -0.1959375 73.37835938 -0.296875 72.54296875 C-1.47481102 63.82014941 -2.82675202 55.26121872 -8.1875 48.0625 C-17.06173256 41.55472945 -27.32090538 40.18656607 -38 39 C-34.19387991 36.64621521 -30.08757512 36.31157442 -25.75 35.6875 C-17.84273803 34.4087403 -12.00078061 32.88737488 -6.9375 26.328125 C-4.75896518 22.58596438 -3.7513164 19.24954191 -2.8125 15.0625 C-2.64814453 14.38509766 -2.48378906 13.70769531 -2.31445312 13.00976562 C-1.29242367 8.6940704 -0.56764477 4.39781349 0 0 Z " fill="#202020" transform="translate(205,223)"/>
<path d="M0 0 C0.66 0 1.32 0 2 0 C2 3.3 2 6.6 2 10 C-4.93 10 -11.86 10 -19 10 C-16.52968305 8.76484153 -14.05741943 7.53355727 -11.58203125 6.30859375 C-10.32549798 5.68494188 -9.06898812 5.06124283 -7.8125 4.4375 C-7.17119141 4.12103516 -6.52988281 3.80457031 -5.86914062 3.47851562 C-2.72546528 2.05087244 -2.72546528 2.05087244 0 0 Z " fill="#1E1E1E" transform="translate(164,328)"/>
<path d="M0 0 C1.32 0 2.64 0 4 0 C4 1.65 4 3.3 4 5 C5.32 5.33 6.64 5.66 8 6 C8 8.31 8 10.62 8 13 C5.69 13 3.38 13 1 13 C0.67 8.71 0.34 4.42 0 0 Z " fill="#7C7C7C" transform="translate(232,308)"/>
<path d="M0 0 C2 1 2 1 2.8515625 3.50390625 C3.10679687 4.51324219 3.36203125 5.52257812 3.625 6.5625 C3.88539063 7.57441406 4.14578125 8.58632813 4.4140625 9.62890625 C4.60742188 10.41136719 4.80078125 11.19382812 5 12 C4.34 12 3.68 12 3 12 C2.67 11.34 2.34 10.68 2 10 C-0.02463255 9.34786708 -0.02463255 9.34786708 -2 9 C-1.67 9.99 -1.34 10.98 -1 12 C-2.32 11.67 -3.64 11.34 -5 11 C-4.34 11 -3.68 11 -3 11 C-2.86722656 10.37351562 -2.73445312 9.74703125 -2.59765625 9.1015625 C-2.33275391 7.87566406 -2.33275391 7.87566406 -2.0625 6.625 C-1.88847656 5.81289063 -1.71445313 5.00078125 -1.53515625 4.1640625 C-1 2 -1 2 0 0 Z " fill="#B5B5B5" transform="translate(191,309)"/>
<path d="M0 0 C1.32 0 2.64 0 4 0 C4 2.64 4 5.28 4 8 C2.35 8 0.7 8 -1 8 C-0.814375 7.360625 -0.62875 6.72125 -0.4375 6.0625 C-0.293125 5.381875 -0.14875 4.70125 0 4 C-0.33 3.67 -0.66 3.34 -1 3 C-0.67 2.01 -0.34 1.02 0 0 Z " fill="#737373" transform="translate(244,313)"/>
<path d="M0 0 C2.64 0 5.28 0 8 0 C6.25 5.75 6.25 5.75 4 8 C2.68 5.36 1.36 2.72 0 0 Z " fill="#8C8C8C" transform="translate(208,313)"/>
<path d="M0 0 C0.33 0.66 0.66 1.32 1 2 C3.02463255 2.65213292 3.02463255 2.65213292 5 3 C4.67 4.65 4.34 6.3 4 8 C1.36 7.67 -1.28 7.34 -4 7 C-3.67 6.34 -3.34 5.68 -3 5 C-1.68 5 -0.36 5 1 5 C0.67 3.35 0.34 1.7 0 0 Z " fill="#8C8C8C" transform="translate(226,314)"/>
<path d="M0 0 C2.125 0.375 2.125 0.375 4 1 C4 1.99 4 2.98 4 4 C2.68 4 1.36 4 0 4 C-0.33 5.32 -0.66 6.64 -1 8 C-2 7 -2 7 -2.1875 4.5625 C-2 2 -2 2 0 0 Z " fill="#707070" transform="translate(220,313)"/>
<path d="M0 0 C2 1 2 1 2.8515625 3.50390625 C3.10679687 4.51324219 3.36203125 5.52257812 3.625 6.5625 C3.88539063 7.57441406 4.14578125 8.58632813 4.4140625 9.62890625 C4.60742188 10.41136719 4.80078125 11.19382812 5 12 C4.34 12 3.68 12 3 12 C2.49166409 10.75336669 1.99368855 9.50250613 1.5 8.25 C1.2215625 7.55390625 0.943125 6.8578125 0.65625 6.140625 C0 4 0 4 0 0 Z " fill="#252525" transform="translate(191,309)"/>
<path d="M0 0 C2.31 0 4.62 0 7 0 C7 0.66 7 1.32 7 2 C6.360625 2.12375 5.72125 2.2475 5.0625 2.375 C4.381875 2.58125 3.70125 2.7875 3 3 C2.67 3.66 2.34 4.32 2 5 C1.34 5 0.68 5 0 5 C0 3.35 0 1.7 0 0 Z " fill="#E1E1E1" transform="translate(220,317)"/>
</svg>
